<?xml version="1.0" encoding="UTF-8"?>
<svg width="30px" height="31px" viewBox="0 0 30 31" version="1.1" xmlns="http://www.w3.org/2000/svg" xmlns:xlink="http://www.w3.org/1999/xlink">
    <!-- Generator: Sketch 43.2 (39069) - http://www.bohemiancoding.com/sketch -->
    <title>ico-idea</title>
    <desc>Created with Sketch.</desc>
    <defs>
        <path d="M0.28571429,0.4285714 L10.5714286,0.4285714 L10.5714286,6.9903808 C10.5714286,8.1002628 9.6766321,9 8.5638219,9 L2.29332091,9 C1.18455039,9 0.28571429,8.0989074 0.28571429,6.9903808 L0.28571429,0.4285714 Z" id="path-1"></path>
        <rect id="path-3" x="4.26325642e-14" y="0.42857143" width="5.14285714" height="1.71428571"></rect>
        <rect id="path-5" x="0.71428571" y="0.71428571" width="5.14285714" height="1.71428571"></rect>
    </defs>
    <g id="Page-1" stroke="none" stroke-width="1" fill="none" fill-rule="evenodd">
        <g id="ico-idea" transform="translate(1.000000, 0.000000)">
            <circle id="Oval" stroke="#0051BA" stroke-width="2" cx="9.42857143" cy="12.8571429" r="9.42857143"></circle>
            <g id="Rectangle-2" transform="translate(4.000000, 21.000000)">
                <g id="path-1-Clipped">
                    <mask id="mask-2" fill="white">
                        <use xlink:href="#path-1"></use>
                    </mask>
                    <g id="path-1"></g>
                    <path d="M0.28571429,0.4285714 L10.5714286,0.4285714 L10.5714286,6.9903808 C10.5714286,8.1002628 9.6766321,9 8.5638219,9 L2.29332091,9 C1.18455039,9 0.28571429,8.0989074 0.28571429,6.9903808 L0.28571429,0.4285714 Z" id="path-1" stroke="#0051BA" stroke-width="4" mask="url(#mask-2)"></path>
                </g>
            </g>
            <path d="M9.42857143,21 L9.42857143,16.7142857" id="Line" stroke="#0051BA" stroke-width="2" stroke-linecap="square"></path>
            <g id="Group" transform="translate(9.818674, 14.174801) rotate(45.000000) translate(-9.818674, -14.174801) translate(6.818674, 10.674801)">
                <g id="Rectangle-3" transform="translate(0.000000, 4.000000)">
                    <g id="path-3-Clipped">
                        <mask id="mask-4" fill="white">
                            <use xlink:href="#path-3"></use>
                        </mask>
                        <g id="path-3"></g>
                        <rect id="path-3" stroke="#0051BA" stroke-width="2" mask="url(#mask-4)" x="4.26325642e-14" y="0.42857143" width="5.14285714" height="1.71428571"></rect>
                    </g>
                </g>
                <g id="Rectangle-3-Copy" transform="translate(4.214285, 3.857143) rotate(-90.000000) translate(-4.214285, -3.857143) translate(1.214285, 2.357143)">
                    <g id="path-5-Clipped">
                        <mask id="mask-6" fill="white">
                            <use xlink:href="#path-5"></use>
                        </mask>
                        <g id="path-5"></g>
                        <rect id="path-5" stroke="#0051BA" stroke-width="2" mask="url(#mask-6)" x="0.71428571" y="0.71428571" width="5.14285714" height="1.71428571"></rect>
                    </g>
                </g>
            </g>
            <g id="Group-2" transform="translate(20.571429, 0.000000)" fill-rule="nonzero" fill="#0051BA">
                <polygon id="Triangle" points="5.14285714 0 4.3042341 6.86540876 0 6.86540876"></polygon>
                <polygon id="Triangle-Copy" points="2.57142857 11.151123 3.41005162 4.28571429 7.71428571 4.28571429"></polygon>
            </g>
            <rect id="Rectangle" fill="#0051BA" x="8" y="30" width="3" height="1"></rect>
        </g>
    </g>
</svg>